<?xml version="1.0" encoding="UTF-8"?>
<svg version="1.1" xmlns="http://www.w3.org/2000/svg" width="512" height="512">
<path d="M0 0 C3.08548553 0.37635327 6.1728996 0.71707755 9.26402283 1.04341125 C40.71729514 4.38170408 75.5051787 8.8525775 102.45068359 26.42089844 C103.624375 27.15179688 103.624375 27.15179688 104.82177734 27.89746094 C109.3179124 30.84663605 109.3179124 30.84663605 109.93115234 33.49902344 C110.10259766 34.13324219 110.27404297 34.76746094 110.45068359 35.42089844 C111.44068359 35.75089844 112.43068359 36.08089844 113.45068359 36.42089844 C115.40610548 39.40548973 115.45068359 40.68504634 115.45068359 44.42089844 C116.11068359 44.42089844 116.77068359 44.42089844 117.45068359 44.42089844 C117.45068359 60.59089844 117.45068359 76.76089844 117.45068359 93.42089844 C116.79068359 93.42089844 116.13068359 93.42089844 115.45068359 93.42089844 C115.48548828 94.08734375 115.52029297 94.75378906 115.55615234 95.44042969 C115.87689953 106.3611078 112.69986504 115.47738246 108.45068359 125.42089844 C107.79068359 125.42089844 107.13068359 125.42089844 106.45068359 125.42089844 C106.30630859 126.03964844 106.16193359 126.65839844 106.01318359 127.29589844 C105.45068359 129.42089844 105.45068359 129.42089844 104.45068359 131.42089844 C103.79068359 131.42089844 103.13068359 131.42089844 102.45068359 131.42089844 C102.45068359 132.41089844 102.45068359 133.40089844 102.45068359 134.42089844 C101.79068359 134.42089844 101.13068359 134.42089844 100.45068359 134.42089844 C100.45068359 135.08089844 100.45068359 135.74089844 100.45068359 136.42089844 C99.79068359 136.42089844 99.13068359 136.42089844 98.45068359 136.42089844 C98.09490234 137.54044922 98.09490234 137.54044922 97.73193359 138.68261719 C96.24662088 141.85702027 94.7420408 143.1534748 91.95068359 145.23339844 C91.15662109 145.83796875 90.36255859 146.44253906 89.54443359 147.06542969 C87.45068359 148.42089844 87.45068359 148.42089844 85.45068359 148.42089844 C85.11037109 149.34902344 85.11037109 149.34902344 84.76318359 150.29589844 C83.07138525 153.03500053 81.45824198 153.47114316 78.45068359 154.42089844 C78.45068359 155.08089844 78.45068359 155.74089844 78.45068359 156.42089844 C76.76943348 157.61632322 75.02820276 158.72802687 73.26318359 159.79589844 C70.2945346 161.60013759 67.51218767 163.37129544 64.80615234 165.55371094 C61.90683935 167.85200549 58.84244242 168.96728751 55.45068359 170.42089844 C53.77544964 171.74345156 52.10961542 173.07795363 50.45068359 174.42089844 C49.15117181 175.17423101 47.83668303 175.90195963 46.51318359 176.61230469 C40.83896891 179.72208988 35.33891427 183.09864809 29.82568359 186.48339844 C22.33925043 191.07294952 14.84126256 195.5779018 7.13818359 199.79589844 C0.8970214 203.2620294 -5.35714709 206.74381527 -11.11181641 210.98339844 C-14.28536316 213.31362507 -17.62151582 215.16169812 -21.08447266 217.02636719 C-24.79792046 219.12731943 -28.32709727 221.50057128 -31.87353516 223.87011719 C-34.6972706 225.50664707 -37.42796976 226.49317754 -40.54931641 227.42089844 C-40.54931641 228.08089844 -40.54931641 228.74089844 -40.54931641 229.42089844 C-41.53931641 229.42089844 -42.52931641 229.42089844 -43.54931641 229.42089844 C-43.87931641 230.41089844 -44.20931641 231.40089844 -44.54931641 232.42089844 C-49.92074498 236.42089844 -49.92074498 236.42089844 -52.54931641 236.42089844 C-52.87931641 237.41089844 -53.20931641 238.40089844 -53.54931641 239.42089844 C-54.53931641 239.75089844 -55.52931641 240.08089844 -56.54931641 240.42089844 C-58.46491577 243.00695758 -58.56718609 244.24577556 -58.23681641 247.48339844 C-57.58821426 250.45706662 -57.58821426 250.45706662 -56.54931641 253.42089844 C-54.53423282 254.1541364 -54.53423282 254.1541364 -52.54931641 254.42089844 C-52.54931641 255.08089844 -52.54931641 255.74089844 -52.54931641 256.42089844 C-51.97697266 256.69933594 -51.40462891 256.97777344 -50.81494141 257.26464844 C-48.58314075 258.40363636 -46.44060767 259.62026226 -44.29931641 260.92089844 C-43.59291016 261.34371094 -42.88650391 261.76652344 -42.15869141 262.20214844 C-41.62759766 262.60433594 -41.09650391 263.00652344 -40.54931641 263.42089844 C-40.54931641 264.08089844 -40.54931641 264.74089844 -40.54931641 265.42089844 C-39.49744141 265.81148438 -39.49744141 265.81148438 -38.42431641 266.20996094 C-35.30322601 267.52455064 -32.47314296 269.0878467 -29.54931641 270.79589844 C-28.53869141 271.38113281 -27.52806641 271.96636719 -26.48681641 272.56933594 C-23.6594659 274.3514691 -21.15388293 276.33379546 -18.54931641 278.42089844 C-16.66802675 279.48666968 -16.66802675 279.48666968 -14.79931641 280.29589844 C-11.75675504 281.75177827 -9.01702789 283.38605728 -6.23681641 285.29589844 C-2.93368957 287.5586256 0.41694752 289.5382106 3.95068359 291.42089844 C8.2191508 293.70058051 12.2158033 296.19279518 16.20849609 298.92089844 C21.02573212 302.14357898 26.06613933 305.01801536 31.06005859 307.95605469 C34.81231846 310.1789844 38.50110937 312.39385062 42.01318359 314.98339844 C44.39038657 316.7306974 46.77811928 318.17192118 49.38818359 319.54589844 C61.37966824 326.04384824 74.84986992 334.73562013 84.45068359 344.42089844 C85.11068359 344.75089844 85.77068359 345.08089844 86.45068359 345.42089844 C88.599205 346.49515914 89.91721324 347.58073402 91.45068359 349.42089844 C91.45068359 350.08089844 91.45068359 350.74089844 91.45068359 351.42089844 C92.04880859 351.68902344 92.64693359 351.95714844 93.26318359 352.23339844 C95.44916213 353.4200725 96.86400953 354.51688956 98.45068359 356.42089844 C98.45068359 357.08089844 98.45068359 357.74089844 98.45068359 358.42089844 C99.44068359 358.75089844 100.43068359 359.08089844 101.45068359 359.42089844 C102.13818359 361.48339844 102.13818359 361.48339844 102.45068359 363.42089844 C103.11068359 363.42089844 103.77068359 363.42089844 104.45068359 363.42089844 C106.45068359 366.42089844 106.45068359 366.42089844 106.45068359 369.42089844 C107.11068359 369.42089844 107.77068359 369.42089844 108.45068359 369.42089844 C112.907195 378.52102668 115.34812516 386.60306865 116.20458984 396.67089844 C116.27523754 398.44603542 116.27523754 398.44603542 117.45068359 399.42089844 C117.56419008 400.7793398 117.61019191 402.14352884 117.62768555 403.5065918 C117.64052078 404.37517319 117.65335602 405.24375458 117.6665802 406.13865662 C117.6776606 407.56033897 117.6776606 407.56033897 117.68896484 409.01074219 C117.69703659 409.98443253 117.70510834 410.95812286 117.71342468 411.96131897 C117.72729186 414.03189299 117.73800216 416.10249012 117.74584961 418.1730957 C117.7629425 421.31409554 117.80678999 424.45400978 117.85107422 427.59472656 C117.86121147 429.60839071 117.86972433 431.62206381 117.87646484 433.63574219 C117.89397293 434.56531235 117.91148102 435.49488251 117.92951965 436.45262146 C117.90435455 444.16799989 116.23269808 451.09793668 111.20068359 457.10839844 C110.29318359 457.87152344 109.38568359 458.63464844 108.45068359 459.42089844 C107.95568359 459.9275 107.46068359 460.43410156 106.95068359 460.95605469 C54.54955009 512.30448685 -73.43468885 500.19363393 -148.23437881 499.84283638 C-169.65123693 499.60342059 -191.03667041 498.71847539 -212.42431641 497.60839844 C-213.23178944 497.56693695 -214.03926247 497.52547546 -214.87120438 497.48275757 C-239.47611733 496.21186479 -263.86373895 494.11860726 -288.17431641 489.98339844 C-290.07274292 489.66471802 -290.07274292 489.66471802 -292.00952148 489.33959961 C-299.68067871 488.01630396 -307.12865373 486.4405589 -314.60009766 484.24511719 C-317.38143734 483.46781563 -320.07126745 482.97153794 -322.92431641 482.54589844 C-337.82021503 479.94956751 -350.6850513 473.03413603 -363.54931641 465.42089844 C-363.54931641 464.76089844 -363.54931641 464.10089844 -363.54931641 463.42089844 C-364.63212891 463.11152344 -364.63212891 463.11152344 -365.73681641 462.79589844 C-369.52150025 460.94560856 -371.07190293 458.81849406 -373.54931641 455.42089844 C-373.54931641 454.76089844 -373.54931641 454.10089844 -373.54931641 453.42089844 C-374.20931641 453.42089844 -374.86931641 453.42089844 -375.54931641 453.42089844 C-376.0296482 451.83791818 -376.50853252 450.25449866 -376.98681641 448.67089844 C-377.38707031 447.34832031 -377.38707031 447.34832031 -377.79541016 445.99902344 C-378.16859375 444.72285156 -378.16859375 444.72285156 -378.54931641 443.42089844 C-378.72712646 442.87747803 -378.90493652 442.33405762 -379.08813477 441.77416992 C-379.7765837 438.26122163 -379.69157949 434.75581393 -379.68212891 431.19042969 C-379.683564 430.00389046 -379.683564 430.00389046 -379.68502808 428.79338074 C-379.68570707 427.12665731 -379.6838724 425.4599312 -379.6796875 423.79321289 C-379.67431389 421.23219946 -379.67965289 418.67135971 -379.68603516 416.11035156 C-379.68537474 414.49121055 -379.68409435 412.87206964 -379.68212891 411.25292969 C-379.68415314 410.48318314 -379.68617737 409.71343658 -379.68826294 408.92036438 C-379.66428194 403.53586397 -379.66428194 403.53586397 -378.54931641 402.42089844 C-378.17306962 399.62844183 -377.8422659 396.84722797 -377.54931641 394.04589844 C-377.38564137 392.4961004 -377.21908543 390.94660326 -377.04931641 389.39746094 C-376.97712891 388.7073291 -376.90494141 388.01719727 -376.83056641 387.30615234 C-376.54931641 385.42089844 -376.54931641 385.42089844 -375.54931641 382.42089844 C-374.88931641 382.42089844 -374.22931641 382.42089844 -373.54931641 382.42089844 C-373.48744141 380.75027344 -373.48744141 380.75027344 -373.42431641 379.04589844 C-371.33811426 363.39938233 -353.19485249 349.30856594 -341.50634766 340.26855469 C-330.47658649 331.86397875 -330.47658649 331.86397875 -327.390625 330.3894043 C-325.37455253 329.55755021 -325.37455253 329.55755021 -324.54931641 327.42089844 C-322.68152566 326.50398298 -320.81232082 325.58983412 -318.93603516 324.69042969 C-314.53595057 322.34995916 -310.586148 319.32959191 -306.54931641 316.42089844 C-302.64706973 313.71934304 -298.78787256 311.54017651 -294.54931641 309.42089844 C-288.40428693 305.88777743 -282.42863969 302.08848577 -276.45947266 298.26855469 C-271.19365243 294.92528896 -265.86719807 291.68044708 -260.54931641 288.42089844 C-258.38238215 287.08800003 -256.21571418 285.75466863 -254.04931641 284.42089844 C-252.98455078 283.76605469 -251.91978516 283.11121094 -250.82275391 282.43652344 C-248.57650702 281.0533929 -246.33160577 279.66827793 -244.08837891 278.28027344 C-234.59831726 272.41535604 -234.59831726 272.41535604 -230.92431641 270.42089844 C-226.74946122 267.94691018 -222.95687305 265.0682436 -219.10009766 262.12792969 C-216.79350116 260.58431151 -215.25475297 259.84540488 -212.54931641 259.42089844 C-212.54931641 258.76089844 -212.54931641 258.10089844 -212.54931641 257.42089844 C-210.83447266 255.98339844 -210.83447266 255.98339844 -208.61181641 254.42089844 C-205.56299004 252.3727304 -205.56299004 252.3727304 -203.54931641 249.42089844 C-202.88931641 249.42089844 -202.22931641 249.42089844 -201.54931641 249.42089844 C-201.62575657 246.21041138 -201.88312466 244.10310441 -204.17431641 241.75683594 C-205.44535368 240.71643042 -206.73822859 239.70203459 -208.05322266 238.71777344 C-208.54693359 238.28980469 -209.04064453 237.86183594 -209.54931641 237.42089844 C-209.54931641 236.76089844 -209.54931641 236.10089844 -209.54931641 235.42089844 C-210.20931641 235.21464844 -210.86931641 235.00839844 -211.54931641 234.79589844 C-214.94976574 233.23735916 -217.55340843 231.21999105 -220.49853516 228.94042969 C-223.38276442 226.80335315 -226.40031775 225.14393544 -229.54931641 223.42089844 C-232.75084868 221.56737976 -235.80735642 219.56669679 -238.86181641 217.48339844 C-241.61151541 215.63672045 -244.30903698 213.9683358 -247.29931641 212.54589844 C-252.71911369 209.94868865 -257.73670524 206.68180201 -262.82617188 203.49853516 C-269.856661 199.10174018 -276.88156293 194.73360559 -284.16650391 190.76855469 C-288.36070249 188.39642598 -292.43131472 185.81909412 -296.52587891 183.28027344 C-299.82876107 181.24904358 -303.17025831 179.32161862 -306.54931641 177.42089844 C-309.76274961 175.56048974 -312.84659838 173.55773879 -315.92431641 171.48339844 C-319.07923591 169.36109239 -322.27618681 167.458119 -325.60400391 165.61621094 C-329.19446439 163.41002437 -332.51740227 160.81509782 -335.90087891 158.30761719 C-338.03910026 156.784371 -340.11602012 155.46818575 -342.42431641 154.23339844 C-345.7463632 152.3066113 -347.94698864 150.22867313 -350.54931641 147.42089844 C-351.37431641 146.59589844 -352.19931641 145.77089844 -353.04931641 144.92089844 C-355.54931641 142.42089844 -358.04931641 139.92089844 -360.54931641 137.42089844 C-361.31244141 136.69902344 -362.07556641 135.97714844 -362.86181641 135.23339844 C-364.54931641 133.42089844 -364.54931641 133.42089844 -364.54931641 131.42089844 C-365.20931641 131.42089844 -365.86931641 131.42089844 -366.54931641 131.42089844 C-369.54931641 125.79589844 -369.54931641 125.79589844 -369.54931641 122.42089844 C-370.20931641 122.42089844 -370.86931641 122.42089844 -371.54931641 122.42089844 C-372.97190453 118.59769286 -373.78973917 115.50808539 -373.54931641 111.42089844 C-374.20931641 111.42089844 -374.86931641 111.42089844 -375.54931641 111.42089844 C-376.86872103 104.79825581 -377.83548097 98.27738458 -378.30322266 91.53808594 C-378.32533746 89.43796534 -378.32533746 89.43796534 -379.54931641 88.42089844 C-379.68797038 85.50801758 -379.76257118 82.62067513 -379.78759766 79.70605469 C-379.7956694 78.82114853 -379.80374115 77.93624237 -379.8120575 77.02452087 C-379.82592447 75.14226248 -379.83663486 73.25997866 -379.84448242 71.37768555 C-379.86155916 68.52635098 -379.90540345 65.6762175 -379.94970703 62.82519531 C-380.09831835 45.03941624 -380.09831835 45.03941624 -375.54931641 37.42089844 C-374.88931641 37.42089844 -374.22931641 37.42089844 -373.54931641 37.42089844 C-372.88931641 35.77089844 -372.22931641 34.12089844 -371.54931641 32.42089844 C-370.88931641 32.42089844 -370.22931641 32.42089844 -369.54931641 32.42089844 C-369.54931641 31.76089844 -369.54931641 31.10089844 -369.54931641 30.42089844 C-345.61254192 9.07492778 -303.79311025 3.95129122 -273.08398438 1.64208984 C-266.83322153 1.09660813 -260.61049427 0.24682997 -254.38476562 -0.52734375 C-253.39621582 -0.64883789 -252.40766602 -0.77033203 -251.38916016 -0.89550781 C-250.52669678 -1.0032251 -249.6642334 -1.11094238 -248.77563477 -1.22192383 C-240.32895725 -2.15703463 -231.89981996 -2.77949074 -223.40869141 -3.11425781 C-222.33037048 -3.15741623 -221.25204956 -3.20057465 -220.14105225 -3.24504089 C-72.13110939 -8.95711366 -72.13110939 -8.95711366 0 0 Z M-272.54931641 20.42089844 C-274.90998469 20.74387946 -277.27066163 21.06679715 -279.63134766 21.38964844 C-308.70414936 24.09088764 -308.70414936 24.09088764 -333.35009766 37.48339844 C-334.70711024 39.3160481 -334.70711024 39.3160481 -334.61181641 41.35839844 C-331.88700258 46.64774293 -327.26744854 48.72348884 -321.86572266 50.51855469 C-319.62028246 51.19332588 -317.36849533 51.84722387 -315.11181641 52.48339844 C-313.90750977 52.82918945 -312.70320313 53.17498047 -311.46240234 53.53125 C-300.25543621 56.6585694 -289.06449896 58.82196587 -277.54931641 60.42089844 C-276.41107422 60.58009766 -275.27283203 60.73929688 -274.10009766 60.90332031 C-264.92741541 62.16665329 -255.74214703 63.31606581 -246.54931641 64.42089844 C-245.43327026 64.55525299 -245.43327026 64.55525299 -244.29467773 64.69232178 C-238.88087263 65.3424656 -233.46551429 65.97853346 -228.04931641 66.60839844 C-227.32909302 66.69307373 -226.60886963 66.77774902 -225.86682129 66.86499023 C-157.26153368 74.89732767 -82.79233936 73.91735373 -14.42822266 64.35839844 C-8.95532618 63.5968485 -3.48493888 62.96355069 2.01318359 62.42089844 C10.34037699 61.57426451 18.49493745 59.99114935 26.69677734 58.34667969 C30.25125098 57.63689077 33.793368 57.07908652 37.38818359 56.60839844 C43.38548236 55.64952799 49.10667022 53.80197017 54.88818359 51.98339844 C55.84909912 51.68264404 56.81001465 51.38188965 57.80004883 51.07202148 C66.2934018 48.47435428 66.2934018 48.47435428 72.45068359 42.42089844 C72.92301742 39.47811445 72.92301742 39.47811445 71.45068359 36.42089844 C64.81121636 31.10534685 57.23246933 28.79822157 49.07568359 26.92089844 C47.84744873 26.6331958 46.61921387 26.34549316 45.35375977 26.04907227 C19.14973067 20.13034399 -7.96161996 17.09157628 -34.77500153 15.92108154 C-40.89050515 15.65348037 -46.99609565 15.34233965 -53.10351562 14.92114258 C-77.35139943 13.27736927 -101.54998911 13.06158787 -125.84757233 13.1030426 C-129.15593073 13.10847082 -132.46428199 13.11084707 -135.77264404 13.11291504 C-181.51149687 13.15743908 -227.20175259 13.86854122 -272.54931641 20.42089844 Z M82.45458984 62.74121094 C42.03627505 76.22796767 -0.39091047 82.04079829 -42.74664307 85.19891357 C-45.60307801 85.42515661 -48.45397856 85.69103278 -51.30664062 85.96044922 C-75.32876309 88.07921129 -99.43908332 87.72521654 -123.53271484 87.68164062 C-129.89993831 87.67023622 -136.26699322 87.67683737 -142.63421059 87.68878555 C-147.62957979 87.69610097 -152.6249107 87.69367267 -157.62028122 87.68852997 C-159.96480709 87.68722069 -162.30933675 87.68874233 -164.65385818 87.69348907 C-181.37085379 87.71993583 -197.89650836 86.86535925 -214.54931641 85.42089844 C-216.24731951 85.2756221 -216.24731951 85.2756221 -217.9796257 85.12741089 C-225.36103034 84.49389681 -232.7376354 83.82119717 -240.11181641 83.10839844 C-241.2156366 83.00207092 -242.31945679 82.89574341 -243.45672607 82.78619385 C-258.88396372 81.28122662 -273.98385251 79.36425839 -289.11962891 75.94677734 C-292.10901377 75.29975815 -295.10951185 74.79734547 -298.12866211 74.31225586 C-305.83815362 73.0728854 -313.40491316 71.3456507 -320.98681641 69.48339844 C-321.98213379 69.24242432 -322.97745117 69.0014502 -324.00292969 68.75317383 C-329.64320767 67.33295655 -334.88534191 65.60163247 -340.18237305 63.18823242 C-343.05631112 62.25653698 -345.5473912 62.29564915 -348.54931641 62.42089844 C-350.57758337 93.29742424 -350.57758337 93.29742424 -340.54931641 121.42089844 C-339.82744141 122.43152344 -339.10556641 123.44214844 -338.36181641 124.48339844 C-337.46462891 125.44246094 -337.46462891 125.44246094 -336.54931641 126.42089844 C-335.88931641 126.42089844 -335.22931641 126.42089844 -334.54931641 126.42089844 C-334.54931641 127.08089844 -334.54931641 127.74089844 -334.54931641 128.42089844 C-332.89083463 129.43441508 -331.2226568 130.43210639 -329.54931641 131.42089844 C-328.21598307 132.75423177 -326.88264974 134.0875651 -325.54931641 135.42089844 C-323.88983493 136.43277739 -322.22351079 137.43355303 -320.54931641 138.42089844 C-320.10201172 138.87464844 -319.65470703 139.32839844 -319.19384766 139.79589844 C-314.41446055 144.51852322 -308.28609898 148.07800333 -302.42431641 151.28027344 C-300.02880793 152.7375411 -297.84851566 154.41756031 -295.61181641 156.10839844 C-290.32943512 160.02616456 -284.79930336 163.23058095 -279.03198242 166.36303711 C-276.28345414 167.85955226 -273.70992519 169.30037504 -271.20166016 171.18261719 C-269.62671474 172.62079753 -269.62671474 172.62079753 -267.54931641 172.42089844 C-267.54931641 173.08089844 -267.54931641 173.74089844 -267.54931641 174.42089844 C-266.52580078 174.82566406 -265.50228516 175.23042969 -264.44775391 175.64746094 C-260.67482122 177.26551603 -257.50546842 179.3859539 -254.17431641 181.79589844 C-249.81654555 184.89665598 -245.43709707 187.73397725 -240.71728516 190.25292969 C-232.75327416 194.54345092 -225.13568897 199.50344303 -217.54931641 204.42089844 C-216.99115234 204.7816748 -216.43298828 205.14245117 -215.85791016 205.51416016 C-180.55408216 228.41315408 -180.55408216 228.41315408 -172.54931641 241.42089844 C-171.88931641 241.42089844 -171.22931641 241.42089844 -170.54931641 241.42089844 C-170.78676934 248.09332575 -170.96892783 253.18616864 -175.54931641 258.42089844 C-176.86490344 259.44413279 -178.19309395 260.45216811 -179.54931641 261.42089844 C-179.54931641 262.08089844 -179.54931641 262.74089844 -179.54931641 263.42089844 C-180.11521484 263.67871094 -180.68111328 263.93652344 -181.26416016 264.20214844 C-183.79033104 265.54943957 -185.87576008 267.13508019 -188.11181641 268.92089844 C-190.55400145 270.86476242 -192.94908913 272.68741358 -195.54931641 274.42089844 C-195.54931641 275.08089844 -195.54931641 275.74089844 -195.54931641 276.42089844 C-196.11005859 276.51757812 -196.67080078 276.61425781 -197.24853516 276.71386719 C-200.08540618 277.5856391 -201.97323787 278.97675879 -204.36181641 280.73339844 C-207.2206372 282.78974322 -210.0271857 284.7825273 -213.11181641 286.48339844 C-216.73251596 288.52415637 -220.11611729 290.79132912 -223.53369141 293.15136719 C-225.54931641 294.42089844 -225.54931641 294.42089844 -228.54931641 295.42089844 C-228.54931641 296.08089844 -228.54931641 296.74089844 -228.54931641 297.42089844 C-229.35369141 297.62714844 -230.15806641 297.83339844 -230.98681641 298.04589844 C-234.83065973 299.52948709 -237.76778924 301.45795646 -241.13916016 303.78808594 C-243.50041594 305.38776976 -245.9031019 306.85145299 -248.36181641 308.29589844 C-253.3006 311.21916599 -258.04024453 314.40330922 -262.79931641 317.60839844 C-264.91791242 319.00474581 -267.02138103 320.31510101 -269.23681641 321.54589844 C-271.9703773 323.09319705 -274.51786053 324.72105964 -277.11181641 326.48339844 C-280.48662594 328.76753349 -283.90328381 330.59788214 -287.54931641 332.42089844 C-289.31496557 333.61774787 -291.03290186 334.86185446 -292.74072266 336.13964844 C-294.93965386 337.69742259 -297.23200373 339.04575175 -299.54931641 340.42089844 C-303.23383812 342.72651581 -306.89336637 345.07028761 -310.54931641 347.42089844 C-311.39880859 347.96488281 -312.24830078 348.50886719 -313.12353516 349.06933594 C-317.00976157 351.60020074 -320.31898303 354.07092308 -323.54931641 357.42089844 C-324.18869141 357.73027344 -324.82806641 358.03964844 -325.48681641 358.35839844 C-329.72453856 360.54146743 -332.75994841 364.02881335 -334.54931641 368.42089844 C-335.20931641 368.42089844 -335.86931641 368.42089844 -336.54931641 368.42089844 C-349.00632282 383.15575745 -348.71756619 401.5013126 -348.86181641 419.73339844 C-348.87144409 420.42435608 -348.88107178 421.11531372 -348.89099121 421.82720947 C-349.00802239 431.6482214 -348.81391511 441.17775507 -343.48681641 449.73339844 C-328.7519774 463.21420859 -307.071716 466.65134332 -288.03320312 469.97167969 C-285.2517877 470.47470744 -282.48181033 471.02632346 -279.70947266 471.57714844 C-256.83146748 475.97990553 -233.7612218 477.76599392 -210.54931641 479.42089844 C-209.71152649 479.48255188 -208.87373657 479.54420532 -208.01055908 479.60772705 C-150.97685311 483.79515807 -91.18272388 484.39176171 -34.32666016 477.88574219 C-30.92611045 477.50815734 -27.54053242 477.33355849 -24.12252808 477.19403076 C-12.98124733 476.69562175 -2.0911127 474.98129156 8.89916992 473.1472168 C12.14160694 472.60782895 15.386629 472.08676255 18.63232422 471.56738281 C28.4680085 469.96551014 38.09868337 468.28656048 47.62036133 465.29516602 C50.66357302 464.35513832 53.71994573 463.62405102 56.82568359 462.92089844 C61.84546686 461.70276437 65.90818324 459.85438077 70.45068359 457.42089844 C71.77477862 457.05257623 73.10699545 456.70967352 74.45068359 456.42089844 C74.45068359 455.76089844 74.45068359 455.10089844 74.45068359 454.42089844 C75.11068359 454.42089844 75.77068359 454.42089844 76.45068359 454.42089844 C76.45068359 453.76089844 76.45068359 453.10089844 76.45068359 452.42089844 C79.45068359 450.92089844 79.45068359 450.92089844 82.45068359 449.42089844 C87.1456292 439.73982684 88.2030837 430.8307288 87.95068359 420.10839844 C87.93379887 418.73910048 87.91736426 417.3697969 87.90136719 416.00048828 C87.73286439 406.20281662 86.76614609 396.94253201 84.45068359 387.42089844 C84.05392005 385.5669306 83.65791824 383.71279932 83.26318359 381.85839844 C82.99505859 380.72402344 82.72693359 379.58964844 82.45068359 378.42089844 C81.79068359 378.42089844 81.13068359 378.42089844 80.45068359 378.42089844 C80.28568359 377.41027344 80.12068359 376.39964844 79.95068359 375.35839844 C78.53254219 370.27586247 74.64404645 367.36040428 70.45068359 364.42089844 C69.46068359 364.09089844 68.47068359 363.76089844 67.45068359 363.42089844 C67.01949219 362.51984375 67.01949219 362.51984375 66.57958984 361.60058594 C65.05697131 358.66072039 63.0893835 357.43787812 60.38818359 355.54589844 C59.39173828 354.84464844 58.39529297 354.14339844 57.36865234 353.42089844 C54.26709995 351.29506869 51.1625901 349.17855021 48.02099609 347.11230469 C45.98857993 345.77486366 43.96380166 344.42787872 41.94287109 343.07324219 C29.16963322 334.51415932 16.17679632 326.35718103 3.05224609 318.34667969 C-2.50011257 314.94925743 -7.98300682 311.49281367 -13.37744141 307.85058594 C-17.35025023 305.23539164 -21.45505481 302.83966221 -25.54931641 300.42089844 C-31.23284435 297.06324501 -36.80446395 293.61644887 -42.27197266 289.91699219 C-44.63738784 288.36304019 -47.04743588 286.9181043 -49.48681641 285.48339844 C-55.89015787 281.68141444 -62.30291959 277.74289175 -67.54931641 272.42089844 C-68.29181641 271.98777344 -69.03431641 271.55464844 -69.79931641 271.10839844 C-75.59013372 267.55494236 -80.09166153 263.05223146 -84.28759766 257.74121094 C-84.91214844 257.08765625 -84.91214844 257.08765625 -85.54931641 256.42089844 C-86.20931641 256.42089844 -86.86931641 256.42089844 -87.54931641 256.42089844 C-89.06711603 251.16504686 -89.33382165 245.8276238 -88.54931641 240.42089844 C-87.19582418 238.12824834 -85.80410825 236.53299641 -83.86181641 234.72558594 C-83.42869141 234.29503906 -82.99556641 233.86449219 -82.54931641 233.42089844 C-82.54931641 232.76089844 -82.54931641 232.10089844 -82.54931641 231.42089844 C-82.01306641 231.17339844 -81.47681641 230.92589844 -80.92431641 230.67089844 C-77.21670635 228.71952473 -73.70782129 226.63642146 -70.80322266 223.58886719 C-67.93933036 220.83417009 -64.80840713 218.7715577 -61.48681641 216.60839844 C-60.48871948 215.95037231 -60.48871948 215.95037231 -59.47045898 215.27905273 C-54.71595532 212.15378262 -49.91484723 209.10475118 -45.10009766 206.07324219 C-42.48832614 204.38139019 -39.95636986 202.60450805 -37.42431641 200.79589844 C-33.5841733 198.06689372 -29.65467266 195.7611813 -25.50634766 193.53808594 C-22.96591768 192.08786044 -20.81276386 190.26739504 -18.54931641 188.42089844 C-15.49370395 186.59928332 -12.40804152 184.88272139 -9.27587891 183.19824219 C-5.01954632 180.88624758 -1.31196066 178.49042401 2.45068359 175.42089844 C4.10487323 174.44784571 5.76114555 173.47761588 7.43896484 172.54589844 C13.84399448 168.96405662 20.04076889 165.08427773 26.11865234 160.97558594 C28.61944925 159.308388 31.15551098 157.70695837 33.70068359 156.10839844 C39.04202571 152.72780216 44.22882932 149.15618285 49.40771484 145.53417969 C51.40343523 144.14819159 53.41360186 142.78272907 55.43896484 141.44042969 C58.62921184 139.30118494 61.73554117 137.07726285 64.82568359 134.79589844 C65.88529297 134.01988281 66.94490234 133.24386719 68.03662109 132.44433594 C68.83326172 131.77660156 69.62990234 131.10886719 70.45068359 130.42089844 C70.45068359 129.76089844 70.45068359 129.10089844 70.45068359 128.42089844 C71.00755859 128.21464844 71.56443359 128.00839844 72.13818359 127.79589844 C75.96289964 125.52174295 78.81601941 122.27607067 80.26318359 118.04589844 C80.32505859 117.50964844 80.38693359 116.97339844 80.45068359 116.42089844 C81.11068359 116.42089844 81.77068359 116.42089844 82.45068359 116.42089844 C83.09756166 113.69197561 83.74322077 110.96277397 84.38818359 108.23339844 C84.57058594 107.46447266 84.75298828 106.69554687 84.94091797 105.90332031 C85.11816406 105.15244141 85.29541016 104.4015625 85.47802734 103.62792969 C85.64036865 102.94190674 85.80270996 102.25588379 85.9699707 101.54907227 C86.12860596 100.8467749 86.28724121 100.14447754 86.45068359 99.42089844 C86.63373047 98.66808594 86.81677734 97.91527344 87.00537109 97.13964844 C87.57599327 93.65584991 87.57443028 90.23230922 87.54833984 86.71386719 C87.5469249 85.98847244 87.54550995 85.2630777 87.54405212 84.51570129 C87.5384829 82.21322394 87.5259362 79.91084609 87.51318359 77.60839844 C87.50816461 76.04134256 87.5036024 74.47428514 87.49951172 72.90722656 C87.48852357 69.07841255 87.47128032 65.24967233 87.45068359 61.42089844 C85.70028359 61.42089844 84.09994003 62.18234615 82.45458984 62.74121094 Z " fill="#FEFEFE" transform="translate(391.54931640625,9.5791015625)"/>
<path d="M0 0 C2.375 0.25 2.375 0.25 5 1 C6.0625 2.8125 6.0625 2.8125 7 5 C7.70125 5.70125 8.4025 6.4025 9.125 7.125 C11 9 11 9 11 11 C12.98 11.99 12.98 11.99 15 13 C15 13.66 15 14.32 15 15 C15.99 15.33 16.98 15.66 18 16 C18 16.66 18 17.32 18 18 C18.680625 18.2475 19.36125 18.495 20.0625 18.75 C23 20 23 20 25.875 21.8125 C31.74196379 25.26062784 38.54616865 26.95281694 45 29 C46.50119472 29.49640145 48.00143058 29.99572854 49.5 30.5 C50.1909375 30.72945313 50.881875 30.95890625 51.59375 31.1953125 C53.49158649 31.8299786 55.38689482 32.47220466 57.28125 33.1171875 C65.29581528 35.82799635 73.34664946 38.32539818 81.47265625 40.6796875 C85.50971675 41.85039063 89.53286384 43.06422339 93.55541992 44.28369141 C100.30321139 46.32886526 107.04602015 48.30566701 113.875 50.0625 C119.92341494 51.64006277 125.73585766 53.61851666 131.59765625 55.78125 C134.89542413 56.96253999 138.20566454 58.00060601 141.5625 59 C157.67393907 63.91700131 174.32041723 70.57412878 187 82 C187.54269531 82.48597656 188.08539063 82.97195313 188.64453125 83.47265625 C190.0625 84.8125 190.0625 84.8125 192 87 C192 87.66 192 88.32 192 89 C192.66 89 193.32 89 194 89 C194.33 90.65 194.66 92.3 195 94 C189.3404107 95.80625191 183.74169474 97.32146369 177.90234375 98.41015625 C175.09784402 98.98011514 172.33411808 99.66153381 169.55981445 100.36181641 C158.19184089 103.19404118 146.67914171 104.87291355 135.09228516 106.54296875 C132.42395592 106.93734048 129.76502655 107.36359198 127.10546875 107.8125 C109.19168069 110.74736809 90.97816738 111.67290214 72.87739563 112.81541443 C70.7190928 112.95387004 68.56145803 113.10280576 66.40422058 113.25697327 C54.2961087 114.08651449 42.21481901 114.16369709 30.08203125 114.16796875 C27.89133179 114.17119514 25.70063252 114.17456015 23.50993347 114.17805481 C18.93540957 114.18400493 14.36090444 114.18589918 9.78637695 114.18530273 C5.16036034 114.18522179 0.53444343 114.19211907 -4.09155273 114.20581055 C-28.0740689 114.27577908 -51.93570905 114.33082899 -75.84365845 112.25473022 C-80.61400427 111.86974297 -85.39005232 111.60054339 -90.16798401 111.3285675 C-105.590949 110.42038122 -120.75188808 108.44070817 -136 106 C-136.98629395 105.84805176 -137.97258789 105.69610352 -138.98876953 105.53955078 C-151.01568039 103.68056627 -162.85740522 101.21230587 -174.6875 98.375 C-175.94812256 98.07360107 -177.20874512 97.77220215 -178.50756836 97.46166992 C-188.26125328 95.06681279 -188.26125328 95.06681279 -192 93 C-191.67 92.01 -191.34 91.02 -191 90 C-190.34 90 -189.68 90 -189 90 C-188.76152344 89.26394531 -188.52304688 88.52789062 -188.27734375 87.76953125 C-186.81094796 84.59009819 -185.19057198 82.97897163 -182.5625 80.6875 C-181.78003906 79.99011719 -180.99757813 79.29273438 -180.19140625 78.57421875 C-178 77 -178 77 -175 77 C-175 76.34 -175 75.68 -175 75 C-157.62418503 66.11806977 -157.62418503 66.11806977 -149 63 C-147.76121094 62.55140625 -146.52242187 62.1028125 -145.24609375 61.640625 C-140.84181038 60.0614678 -136.42329377 58.52498318 -132 57 C-131.22962402 56.73364746 -130.45924805 56.46729492 -129.66552734 56.19287109 C-121.44949857 53.36395274 -113.29175751 50.69950348 -104.828125 48.69921875 C-97.86662862 46.97807531 -91.06352451 44.6581726 -84.234375 42.48046875 C-83.40043213 42.21532471 -82.56648926 41.95018066 -81.70727539 41.67700195 C-80.07022916 41.15595778 -78.43395057 40.63249339 -76.79858398 40.10620117 C-73.16071775 38.94645171 -69.53441298 37.85419814 -65.82421875 36.94921875 C-61.72655631 35.93212787 -57.77258922 34.6728823 -53.78051758 33.3059082 C-53.10915771 33.07605225 -52.43779785 32.84619629 -51.74609375 32.609375 C-51.01503418 32.35865234 -50.28397461 32.10792969 -49.53076172 31.84960938 C-46.56262358 30.85316709 -43.58045606 29.90475731 -40.59765625 28.953125 C-38.29405152 28.19858591 -35.99066712 27.4433738 -33.6875 26.6875 C-32.59066895 26.34517334 -31.49383789 26.00284668 -30.36376953 25.65014648 C-19.8284062 22.13756166 -12.33310676 16.23620716 -5.4375 7.625 C-4.61121094 6.60664063 -3.78492188 5.58828125 -2.93359375 4.5390625 C-1.01208954 2.17926734 -1.01208954 2.17926734 0 0 Z " fill="#FEFEFE" transform="translate(259,356)"/>
<path d="M0 0 C4.07737347 0.25483584 7.19816683 0.98311713 10.875 2.75 C17.07765551 5.63495605 23.60063486 7.37195378 30.16894531 9.20800781 C32.23715333 9.78659239 34.30403183 10.36993543 36.37011719 10.95605469 C54.76404244 16.26888021 54.76404244 16.26888021 73.453125 20.359375 C76.12802881 20.84250741 78.7680504 21.37267145 81.421875 21.953125 C121.77825655 30.68571199 164.38839259 31.98599637 205.33496094 27.30029297 C208.24481766 26.97241428 211.1571488 26.67589702 214.0703125 26.37890625 C227.20909828 24.98340395 239.86593019 22.71179937 252.69042969 19.55371094 C255.71554764 18.8284501 258.76062811 18.2264638 261.8125 17.625 C280.62688912 13.61906548 300.09249185 8.32127763 317.828125 0.80078125 C320 0 320 0 324 0 C324 0.99 324 1.98 324 3 C322.19921875 4.76171875 322.19921875 4.76171875 319.6875 6.6875 C318.33011719 7.73164063 318.33011719 7.73164063 316.9453125 8.796875 C315.97335937 9.52390625 315.00140625 10.2509375 314 11 C313.00742187 11.74765625 312.01484375 12.4953125 310.9921875 13.265625 C303.46691176 18.84436275 303.46691176 18.84436275 300 20 C299.2575 20.763125 298.515 21.52625 297.75 22.3125 C295.23894341 24.76648713 292.89613392 26.31765971 289.8203125 27.96875 C287.94045214 29.03373527 286.23987879 30.22044789 284.5 31.5 C281.73101195 33.52443793 278.87619469 35.24208152 275.875 36.91015625 C272.13111743 39.086288 268.58486135 41.57424382 265 44 C263.37579119 45.08451918 261.75081164 46.16788511 260.125 47.25 C259.40570313 47.72953125 258.68640625 48.2090625 257.9453125 48.703125 C253 52 253 52 249 52 C249 52.66 249 53.32 249 54 C247.1640625 55.26171875 247.1640625 55.26171875 244.625 56.6875 C240.95410754 58.81248141 237.44897606 61.0309711 234 63.5 C220.62806236 73 220.62806236 73 217 73 C217 73.66 217 74.32 217 75 C215.89591797 75.58007812 215.89591797 75.58007812 214.76953125 76.171875 C209.81265445 78.81728878 205.35702816 81.43515877 201 85 C199.66666667 85.33333333 198.33333333 85.66666667 197 86 C196.67 86.99 196.34 87.98 196 89 C194.1796875 90.39453125 194.1796875 90.39453125 191.875 91.8125 C183.95318567 96.94281785 179.11676589 101.40053347 175 110 C174.195625 111.5778125 174.195625 111.5778125 173.375 113.1875 C171.39395243 117.92625583 170.63072099 123.06889819 169.6484375 128.0859375 C169 131 169 131 168 132 C167.3435117 135.14364113 166.75496205 138.29150991 166.19335938 141.453125 C165.54921351 144.88411956 164.96424739 147.05362891 163 150 C162.01 149.67 161.02 149.34 160 149 C160 147.68 160 146.36 160 145 C159.34 145 158.68 145 158 145 C157.80664062 143.99839844 157.61328125 142.99679687 157.4140625 141.96484375 C157.15119951 140.62236492 156.88816974 139.27991873 156.625 137.9375 C156.49867188 137.28072266 156.37234375 136.62394531 156.2421875 135.94726562 C154.70960832 128.16942631 152.30169314 120.6692607 149.94140625 113.109375 C149.20089931 110.66355124 148.54716092 108.2296293 147.9375 105.75 C147.628125 104.8425 147.31875 103.935 147 103 C146.01 102.67 145.02 102.34 144 102 C143.3125 99.9375 143.3125 99.9375 143 98 C142.443125 97.938125 141.88625 97.87625 141.3125 97.8125 C138.06572423 96.67174095 136.42390092 94.42390092 134 92 C132.34776958 91.02809976 130.69213788 90.06026962 129.00390625 89.15234375 C126.64539085 87.79608246 124.46669406 86.26483064 122.25 84.6875 C117.80467304 81.53057584 113.2582277 78.58341254 108.64453125 75.6796875 C106.27769425 74.17637892 103.94729398 72.63333871 101.625 71.0625 C97.97440961 68.60914624 94.25259589 66.29422046 90.5 64 C84.49701471 60.32840667 78.62843339 56.50191616 72.8359375 52.5078125 C68.86534898 49.79995531 64.8811543 47.36189928 60.625 45.125 C55.59275958 42.44348447 51.11378734 39.28273297 46.55078125 35.875 C43.14990849 33.37512416 39.60257885 31.19258076 36 29 C15.65312843 16.30625686 15.65312843 16.30625686 14 13 C12.34948712 11.88365848 12.34948712 11.88365848 10.4375 10.875 C9.303125 10.25625 8.16875 9.6375 7 9 C7 8.34 7 7.68 7 7 C6.236875 6.7525 5.47375 6.505 4.6875 6.25 C1.7635955 4.89004442 0.69995644 3.68414174 -1 1 C-0.67 0.67 -0.34 0.34 0 0 Z " fill="#FEFEFE" transform="translate(99,132)"/>
</svg>
